HIERARCHY
ROOT Hips
{
   OFFSET 0.00000 0.00000 0.00000
   CHANNELS 6 Xposition Yposition Zposition Zrotation Xrotation Yrotation
   JOINT Spine
   {
      OFFSET 0.000000 11.890501 0.000000
      CHANNELS 3 Zrotation Xrotation Yrotation
      JOINT Spine1
      {
         OFFSET -0.000000 25.657401 0.127660
         CHANNELS 3 Zrotation Xrotation Yrotation
         JOINT HEad
         {
            OFFSET 0.000000 8.734161 0.011340
            CHANNELS 3 Zrotation Xrotation Yrotation
            End Site
            {
               OFFSET -0.290000 12.774200 2.513950
            }
         }
         JOINT LeftShoulder1
         {
            OFFSET 8.990000 -0.362250 -0.220000
            CHANNELS 3 Zrotation Xrotation Yrotation
            JOINT LeftArm
            {
               OFFSET 10.282700 -0.003380 0.322120
               CHANNELS 3 Zrotation Xrotation Yrotation
               JOINT LeftForeArm
               {
                  OFFSET 32.766900 0.099140 -1.424340
                  CHANNELS 3 Zrotation Xrotation Yrotation
                  JOINT LeftHand
                  {
                     OFFSET 27.564301 0.085360 1.022160
                     CHANNELS 3 Zrotation Xrotation Yrotation
                     End Site
                     {
                        OFFSET 16.744301 -0.600000 1.502910
                     }
                  }
               }
            }
         }
         JOINT RightShoulder
         {
            OFFSET -8.990000 -0.362250 -0.220000
            CHANNELS 3 Zrotation Xrotation Yrotation
            JOINT RightArm
            {
               OFFSET -10.282700 -0.003380 0.322120
               CHANNELS 3 Zrotation Xrotation Yrotation
               JOINT RightForeArm
               {
                  OFFSET -32.897098 0.099140 -1.424340
                  CHANNELS 3 Zrotation Xrotation Yrotation
                  JOINT RightHand
                  {
                     OFFSET -27.492101 0.085360 1.022160
                     CHANNELS 3 Zrotation Xrotation Yrotation
                     End Site
                     {
                        OFFSET -16.631201 -0.600000 1.502910
                     }
                  }
               }
            }
         }
      }
   }
   JOINT LeftUpLeg
   {
      OFFSET 8.945800 -8.667070 0.101650
      CHANNELS 3 Zrotation Xrotation Yrotation
      JOINT LeftLeg
      {
         OFFSET 0.000000 -44.422697 1.372700
         CHANNELS 3 Zrotation Xrotation Yrotation
         JOINT LeftFoot
         {
            OFFSET -0.253550 -42.092399 -1.460590
            CHANNELS 3 Zrotation Xrotation Yrotation
            JOINT LeftToes
            {
               OFFSET -0.040000 -4.415090 8.499099
               CHANNELS 3 Zrotation Xrotation Yrotation
               End Site
               {
                  OFFSET 0.080000 -0.047450 9.779790
               }
            }
         }
      }
   }
   JOINT RightUpLeg
   {
      OFFSET -8.945800 -8.667070 0.101650
      CHANNELS 3 Zrotation Xrotation Yrotation
      JOINT RightLeg
      {
         OFFSET 0.000000 -44.422697 1.372700
         CHANNELS 3 Zrotation Xrotation Yrotation
         JOINT RightFoot
         {
            OFFSET 0.253550 -42.092399 -1.460590
            CHANNELS 3 Zrotation Xrotation Yrotation
            JOINT RightToes
            {
               OFFSET 0.040000 -4.415090 8.499099
               CHANNELS 3 Zrotation Xrotation Yrotation
               End Site
               {
                  OFFSET -0.080000 -0.137450 9.779790
               }
            }
         }
      }
   }
}
MOTION
Frames: 11
Frame Time: 0.016670
-60.643949 97.141779 -133.477524 -6.360575 -16.685046 -17.250536 -12.854291 21.338674 156.612604 29.132697 -23.299773 -136.649395 -2.121968 -2.661706 -9.464264 -1.142442 -8.982075 -3.226062 -39.365973 -37.149225 -74.811178 354.414746 -8.241865 -62.633968 -114.408134 -43.130022 -111.959675 -61.729269 48.633378 65.713475 87.973178 82.839061 210.238946 11.059535 133.442936 46.604935 -10.218356 -19.250605 38.259732 20.847358 -21.417100 -115.395008 -20.353684 -19.988479 114.991562 -73.408933 -14.935691 64.831691 17.810702 -4.201933 -36.265842 -19.476242 -0.322748 171.137138 -10.837782 -31.000477 -105.091203 -43.835321 26.377067 11.989041 41.258540 -17.565577 -63.984673
-59.641079 97.394494 -133.175199 -6.989718 -16.044932 -22.962261 -13.206458 20.321737 150.501524 27.562392 -22.718377 -135.575936 -0.388184 -7.103484 -1.059943 -4.632448 -7.641007 5.686249 -39.704149 -36.372895 -76.186225 345.211120 -7.501440 -60.218499 -113.000651 -43.623278 -109.466431 -65.057873 45.415936 74.985068 95.474884 83.260033 204.916207 4.489270 132.372263 49.966532 -17.102435 -14.163628 22.976509 21.311959 -20.582748 -119.505006 -21.208118 -21.202289 119.378060 -75.723480 -14.299363 64.391144 18.064133 -5.756603 -33.903597 -20.806950 -2.182401 169.153842 -10.550761 -29.954160 -101.419191 -43.966150 26.993770 12.772370 42.304826 -16.618274 -60.714030
-58.414840 97.455157 -132.579735 -7.221733 -15.787463 -30.808569 -14.259835 22.284623 142.407504 30.921270 -19.837282 -131.410558 2.546194 -12.475717 7.337420 -0.698938 -4.914444 3.904331 -56.625454 -49.671707 -87.674186 337.823861 -8.581650 -58.703871 -109.578467 -49.523789 -105.515610 -62.102402 46.751931 76.553778 93.928051 86.319917 200.492225 2.325895 139.136377 56.035135 -12.660485 -19.762826 30.549503 21.741160 -18.142512 -123.520105 -20.050217 -23.810699 125.400525 -76.378618 -15.445250 63.290623 17.394315 -8.602290 -32.483085 -22.872726 -4.687619 167.600439 -10.209625 -28.564276 -98.298983 -43.635029 28.013811 14.438745 43.218353 -16.669883 -55.432279
-57.054385 97.346943 -131.557081 -7.305336 -15.811751 -38.984616 -17.392592 21.293876 132.509631 29.749176 -21.143091 -130.383653 5.908239 -16.994076 15.697767 -1.401671 -7.539591 9.298179 -49.239418 -56.797210 -74.780975 334.951521 -21.100227 -53.238340 -118.399171 -59.303486 -85.457537 -67.131020 40.134222 85.675475 97.832952 83.240137 196.918411 1.168625 145.765061 61.122584 -17.191625 -22.194053 33.940952 21.032541 -14.993843 -126.855710 -18.176988 -25.968169 131.484734 -75.705940 -18.144401 61.458554 15.889095 -12.737645 -31.732970 -25.174774 -6.408942 165.019378 -10.172733 -26.559822 -93.868410 -42.856982 29.256586 16.549974 35.839782 -16.183435 -69.691781
-55.570220 97.122048 -130.325897 -8.961747 -17.391554 -47.018100 -16.802812 20.669184 125.233909 28.988262 -17.917323 -127.214063 9.570838 -20.683206 22.740821 -0.551573 -7.535814 12.957994 -36.011821 -56.584265 -63.675531 330.291173 -32.187731 -50.818072 -110.407098 -95.280224 -102.176604 -64.443197 40.601083 84.537900 94.811072 87.940980 196.878878 -0.054085 153.581352 64.586310 -16.327333 -25.059679 38.508613 19.833696 -10.072350 -130.369979 -15.695734 -27.403484 136.850913 -74.620978 -19.753269 60.444463 14.764550 -15.649497 -30.764026 -27.140102 -6.118693 161.307867 -9.296744 -25.888295 -90.289104 -43.486913 28.357106 16.126772 37.249208 -19.668751 -58.501629
-54.056176 96.721362 -128.812902 -9.609636 -15.762960 -54.012613 -17.526936 21.213709 120.065109 26.938568 -17.082564 -124.786463 13.836770 -23.130079 28.423113 0.433546 -6.099513 5.138852 -36.077377 -70.182161 -53.006950 323.167149 -45.807603 -44.357759 -121.575250 -99.524701 -88.051493 -69.271157 37.875137 92.907471 97.594374 88.773417 195.948237 -0.996598 159.973453 65.508850 -20.608363 -26.356368 37.357310 19.833992 -6.750702 -133.326850 -11.517380 -26.910259 142.017815 -72.802426 -21.479302 59.557706 13.674407 -18.071548 -29.457824 -27.513561 -8.155245 156.541147 -9.416191 -25.645707 -86.789581 -42.921090 28.387876 16.798094 34.087917 -21.133667 -59.697889
-52.621645 96.310767 -127.307404 -11.776156 -16.890146 -58.179592 -18.881027 20.132032 118.836877 23.112853 -14.048030 -123.655097 17.756262 -24.836859 32.792561 -0.978474 -7.000564 2.105756 -12.316691 -64.746423 -31.787526 310.511137 -55.790375 -49.676123 -115.423298 -94.889755 -96.019421 -74.015502 36.890026 99.620099 99.531456 90.095468 194.766505 -1.696097 170.003490 64.426244 -20.289299 -26.960618 40.313873 18.499222 -2.637466 -136.648357 -8.977845 -26.947502 146.253912 -70.960912 -21.824924 58.740617 12.989807 -19.203002 -28.317585 -29.089830 -6.901787 152.370169 -8.969287 -25.640047 -83.407422 -41.623234 28.186884 17.688493 33.152458 -22.123696 -55.681164
-51.422400 95.988635 -125.978048 -12.601244 -19.059390 -61.633708 -17.143490 19.309276 117.415774 19.066634 -10.246413 -126.667415 19.830131 -24.434003 35.924828 -3.617234 -9.117092 -0.095603 0.146714 -56.656894 -17.984771 299.167914 -68.255364 -56.026686 -126.453822 -105.355162 -89.930970 -74.637281 40.128430 106.144691 99.385202 93.639913 191.743887 -1.060390 176.183555 68.642541 -23.835514 -29.080101 44.784505 15.782487 -0.060551 -138.339608 -7.559846 -27.376971 149.261709 -69.009923 -20.870801 58.513001 12.637429 -19.131228 -26.985888 -32.341147 -5.599902 148.408112 -8.999494 -24.885446 -80.726279 -40.159887 28.239748 18.293444 31.219746 -22.304316 -55.063814
-50.390805 95.943640 -124.573801 -11.972229 -17.169926 -63.246978 -16.352820 21.310120 116.145728 17.085660 -7.966656 -132.020385 20.641836 -24.507613 38.059283 -2.907175 -11.482116 -6.671535 7.890548 -47.821733 -16.088494 291.583836 -81.917621 -65.034828 -111.121857 -93.027907 -95.601564 -79.469784 44.205671 111.362362 98.994016 92.915940 191.019463 0.577757 186.037551 73.732637 -24.176052 -30.848812 51.219554 15.850241 -0.542172 -138.799621 -6.598702 -26.512366 151.258501 -66.754519 -19.809137 58.198519 12.356716 -18.685816 -25.757868 -32.713966 -7.199079 143.826654 -9.090178 -25.302583 -78.568185 -38.623422 28.209043 18.625724 29.982109 -21.807841 -53.563539
-49.367108 96.205653 -123.182304 -9.476169 -17.540185 -62.954161 -15.472211 20.419680 122.838288 17.385084 -7.350843 -128.389702 19.689617 -25.879676 38.255808 -0.795388 -13.434513 -6.814923 14.913325 -34.416753 -18.284334 278.322695 -82.965802 -66.540645 -122.597934 -88.418178 -85.998994 -74.872418 49.718152 116.793175 101.142917 99.506301 192.969223 -0.752301 192.821308 75.890280 -28.579110 -35.025746 51.038817 13.470181 -1.477977 -138.246362 -5.899283 -25.093724 151.799110 -64.867454 -17.736280 57.483015 12.292279 -17.302343 -24.843819 -34.932101 -9.113919 140.274382 -7.952030 -24.833352 -76.960113 -37.039143 28.360484 18.792429 28.587369 -20.801064 -53.125102
-48.406781 96.518944 -121.564711 -10.605524 -18.229561 -68.102150 -24.322391 16.247024 126.746072 13.764442 -16.862187 -127.027080 19.887187 -27.812815 36.493438 -10.002721 -23.805342 -12.951880 11.232828 -23.765720 -24.409431 271.746808 -90.215932 -76.587587 -109.873749 -86.004758 -99.009623 -72.574223 54.379962 118.480969 101.308658 101.253593 193.529162 -0.194911 201.144317 78.723702 -30.435757 -36.898167 50.646908 11.937399 0.110566 -137.155813 -7.123799 -26.057780 151.600720 -63.435116 -14.461107 57.437847 12.329717 -14.815379 -23.599873 -35.865388 -10.678124 138.759910 -6.511883 -25.354562 -75.987685 -35.203615 28.105523 19.334580 27.172128 -19.519103 -52.186422
